<svg width="547" height="792" viewBox="0 0 547 792" fill="none" xmlns="http://www.w3.org/2000/svg">
<g opacity="0.6" clip-path="url(#clip0_58_281)" filter="url(#filter0_d_58_281)">
<path d="M835.998 493.364C786.381 553.026 684.061 479.618 539.041 516.048C413.438 547.615 407.903 624.023 306.942 622.53C233.183 621.453 151.911 580.72 106.095 507.585C55.5688 426.949 71.3756 343.33 75.8844 323.024C96.003 231.945 160.728 182.674 183.575 165.828C277.703 96.4669 385.305 105.808 436.925 110.263C630.831 127.062 841.042 260.461 853.667 410.389C855.338 430.017 858.395 466.423 835.998 493.364Z" fill="url(#paint0_linear_58_281)"/>
</g>
<defs>
<filter id="filter0_d_58_281" x="-3.99994" y="-0.000244141" width="931.115" height="799.609" filterUnits="userSpaceOnUse" color-interpolation-filters="sRGB">
<feFlood flood-opacity="0" result="BackgroundImageFix"/>
<feColorMatrix in="SourceAlpha" type="matrix" values="0 0 0 0 0 0 0 0 0 0 0 0 0 0 0 0 0 0 127 0" result="hardAlpha"/>
<feOffset dy="4"/>
<feGaussianBlur stdDeviation="2"/>
<feComposite in2="hardAlpha" operator="out"/>
<feColorMatrix type="matrix" values="0 0 0 0 0 0 0 0 0 0 0 0 0 0 0 0 0 0 0.25 0"/>
<feBlend mode="normal" in2="BackgroundImageFix" result="effect1_dropShadow_58_281"/>
<feBlend mode="normal" in="SourceGraphic" in2="effect1_dropShadow_58_281" result="shape"/>
</filter>
<linearGradient id="paint0_linear_58_281" x1="356.009" y1="742.124" x2="537.152" y2="151.875" gradientUnits="userSpaceOnUse">
<stop stop-color="#F3F7FF"/>
<stop offset="1" stop-color="#DEEEFE"/>
</linearGradient>
<clipPath id="clip0_58_281">
<rect width="778.734" height="557.403" fill="white" transform="translate(731.038 791.608) rotate(-159.843)"/>
</clipPath>
</defs>
</svg>
