<svg width="132" height="115" viewBox="0 0 132 115" fill="none" xmlns="http://www.w3.org/2000/svg">
<g opacity="0.3">
<mask id="mask0_58_283" style="mask-type:alpha" maskUnits="userSpaceOnUse" x="0" y="0" width="11" height="11">
<path d="M5.22838 10.4252C8.11594 10.4252 10.4568 8.09145 10.4568 5.21269C10.4568 2.33393 8.11594 0.000244141 5.22838 0.000244141C2.34082 0.000244141 0 2.33393 0 5.21269C0 8.09145 2.34082 10.4252 5.22838 10.4252Z" fill="url(#paint0_linear_58_283)"/>
</mask>
<g mask="url(#mask0_58_283)">
<path d="M5.22838 10.4252C8.11594 10.4252 10.4568 8.09145 10.4568 5.21269C10.4568 2.33393 8.11594 0.000244141 5.22838 0.000244141C2.34082 0.000244141 0 2.33393 0 5.21269C0 8.09145 2.34082 10.4252 5.22838 10.4252Z" fill="url(#paint1_linear_58_283)"/>
</g>
<mask id="mask1_58_283" style="mask-type:alpha" maskUnits="userSpaceOnUse" x="30" y="0" width="11" height="11">
<path d="M35.5094 10.4252C38.397 10.4252 40.7378 8.09145 40.7378 5.21269C40.7378 2.33393 38.397 0.000244141 35.5094 0.000244141C32.6219 0.000244141 30.2811 2.33393 30.2811 5.21269C30.2811 8.09145 32.6219 10.4252 35.5094 10.4252Z" fill="url(#paint2_linear_58_283)"/>
</mask>
<g mask="url(#mask1_58_283)">
<path d="M35.5094 10.4252C38.397 10.4252 40.7378 8.09145 40.7378 5.21269C40.7378 2.33393 38.397 0.000244141 35.5094 0.000244141C32.6219 0.000244141 30.2811 2.33393 30.2811 5.21269C30.2811 8.09145 32.6219 10.4252 35.5094 10.4252Z" fill="url(#paint3_linear_58_283)"/>
</g>
<mask id="mask2_58_283" style="mask-type:alpha" maskUnits="userSpaceOnUse" x="60" y="0" width="12" height="11">
<path d="M65.7905 10.4252C68.6781 10.4252 71.0189 8.09145 71.0189 5.21269C71.0189 2.33393 68.6781 0.000244141 65.7905 0.000244141C62.9029 0.000244141 60.5621 2.33393 60.5621 5.21269C60.5621 8.09145 62.9029 10.4252 65.7905 10.4252Z" fill="url(#paint4_linear_58_283)"/>
</mask>
<g mask="url(#mask2_58_283)">
<path d="M65.7905 10.4252C68.6781 10.4252 71.0189 8.09145 71.0189 5.21269C71.0189 2.33393 68.6781 0.000244141 65.7905 0.000244141C62.9029 0.000244141 60.5621 2.33393 60.5621 5.21269C60.5621 8.09145 62.9029 10.4252 65.7905 10.4252Z" fill="url(#paint5_linear_58_283)"/>
</g>
<mask id="mask3_58_283" style="mask-type:alpha" maskUnits="userSpaceOnUse" x="90" y="0" width="12" height="11">
<path d="M96.0716 10.4252C98.9592 10.4252 101.3 8.09145 101.3 5.21269C101.3 2.33393 98.9592 0.000244141 96.0716 0.000244141C93.184 0.000244141 90.8432 2.33393 90.8432 5.21269C90.8432 8.09145 93.184 10.4252 96.0716 10.4252Z" fill="url(#paint6_linear_58_283)"/>
</mask>
<g mask="url(#mask3_58_283)">
<path d="M96.0716 10.4252C98.9592 10.4252 101.3 8.09145 101.3 5.21269C101.3 2.33393 98.9592 0.000244141 96.0716 0.000244141C93.184 0.000244141 90.8432 2.33393 90.8432 5.21269C90.8432 8.09145 93.184 10.4252 96.0716 10.4252Z" fill="url(#paint7_linear_58_283)"/>
</g>
<mask id="mask4_58_283" style="mask-type:alpha" maskUnits="userSpaceOnUse" x="121" y="0" width="11" height="11">
<path d="M126.353 10.4252C129.24 10.4252 131.581 8.09145 131.581 5.21269C131.581 2.33393 129.24 0.000244141 126.353 0.000244141C123.465 0.000244141 121.124 2.33393 121.124 5.21269C121.124 8.09145 123.465 10.4252 126.353 10.4252Z" fill="url(#paint8_linear_58_283)"/>
</mask>
<g mask="url(#mask4_58_283)">
<path d="M126.353 10.4252C129.24 10.4252 131.581 8.09145 131.581 5.21269C131.581 2.33393 129.24 0.000244141 126.353 0.000244141C123.465 0.000244141 121.124 2.33393 121.124 5.21269C121.124 8.09145 123.465 10.4252 126.353 10.4252Z" fill="url(#paint9_linear_58_283)"/>
</g>
<mask id="mask5_58_283" style="mask-type:alpha" maskUnits="userSpaceOnUse" x="0" y="26" width="11" height="11">
<path d="M5.22838 36.596C8.11594 36.596 10.4568 34.2623 10.4568 31.3836C10.4568 28.5048 8.11594 26.1711 5.22838 26.1711C2.34082 26.1711 0 28.5048 0 31.3836C0 34.2623 2.34082 36.596 5.22838 36.596Z" fill="url(#paint10_linear_58_283)"/>
</mask>
<g mask="url(#mask5_58_283)">
<path d="M5.22838 36.596C8.11594 36.596 10.4568 34.2623 10.4568 31.3836C10.4568 28.5048 8.11594 26.1711 5.22838 26.1711C2.34082 26.1711 0 28.5048 0 31.3836C0 34.2623 2.34082 36.596 5.22838 36.596Z" fill="url(#paint11_linear_58_283)"/>
</g>
<mask id="mask6_58_283" style="mask-type:alpha" maskUnits="userSpaceOnUse" x="30" y="26" width="11" height="11">
<path d="M35.5094 36.596C38.397 36.596 40.7378 34.2623 40.7378 31.3836C40.7378 28.5048 38.397 26.1711 35.5094 26.1711C32.6219 26.1711 30.2811 28.5048 30.2811 31.3836C30.2811 34.2623 32.6219 36.596 35.5094 36.596Z" fill="url(#paint12_linear_58_283)"/>
</mask>
<g mask="url(#mask6_58_283)">
<path d="M35.5094 36.596C38.397 36.596 40.7378 34.2623 40.7378 31.3836C40.7378 28.5048 38.397 26.1711 35.5094 26.1711C32.6219 26.1711 30.2811 28.5048 30.2811 31.3836C30.2811 34.2623 32.6219 36.596 35.5094 36.596Z" fill="url(#paint13_linear_58_283)"/>
</g>
<mask id="mask7_58_283" style="mask-type:alpha" maskUnits="userSpaceOnUse" x="60" y="26" width="12" height="11">
<path d="M65.7905 36.596C68.6781 36.596 71.0189 34.2623 71.0189 31.3836C71.0189 28.5048 68.6781 26.1711 65.7905 26.1711C62.9029 26.1711 60.5621 28.5048 60.5621 31.3836C60.5621 34.2623 62.9029 36.596 65.7905 36.596Z" fill="url(#paint14_linear_58_283)"/>
</mask>
<g mask="url(#mask7_58_283)">
<path d="M65.7905 36.596C68.6781 36.596 71.0189 34.2623 71.0189 31.3836C71.0189 28.5048 68.6781 26.1711 65.7905 26.1711C62.9029 26.1711 60.5621 28.5048 60.5621 31.3836C60.5621 34.2623 62.9029 36.596 65.7905 36.596Z" fill="url(#paint15_linear_58_283)"/>
</g>
<mask id="mask8_58_283" style="mask-type:alpha" maskUnits="userSpaceOnUse" x="90" y="26" width="12" height="11">
<path d="M96.0716 36.596C98.9592 36.596 101.3 34.2623 101.3 31.3836C101.3 28.5048 98.9592 26.1711 96.0716 26.1711C93.184 26.1711 90.8432 28.5048 90.8432 31.3836C90.8432 34.2623 93.184 36.596 96.0716 36.596Z" fill="url(#paint16_linear_58_283)"/>
</mask>
<g mask="url(#mask8_58_283)">
<path d="M96.0716 36.596C98.9592 36.596 101.3 34.2623 101.3 31.3836C101.3 28.5048 98.9592 26.1711 96.0716 26.1711C93.184 26.1711 90.8432 28.5048 90.8432 31.3836C90.8432 34.2623 93.184 36.596 96.0716 36.596Z" fill="url(#paint17_linear_58_283)"/>
</g>
<mask id="mask9_58_283" style="mask-type:alpha" maskUnits="userSpaceOnUse" x="121" y="26" width="11" height="11">
<path d="M126.353 36.596C129.24 36.596 131.581 34.2623 131.581 31.3836C131.581 28.5048 129.24 26.1711 126.353 26.1711C123.465 26.1711 121.124 28.5048 121.124 31.3836C121.124 34.2623 123.465 36.596 126.353 36.596Z" fill="url(#paint18_linear_58_283)"/>
</mask>
<g mask="url(#mask9_58_283)">
<path d="M126.353 36.596C129.24 36.596 131.581 34.2623 131.581 31.3836C131.581 28.5048 129.24 26.1711 126.353 26.1711C123.465 26.1711 121.124 28.5048 121.124 31.3836C121.124 34.2623 123.465 36.596 126.353 36.596Z" fill="url(#paint19_linear_58_283)"/>
</g>
<mask id="mask10_58_283" style="mask-type:alpha" maskUnits="userSpaceOnUse" x="0" y="52" width="11" height="11">
<path d="M5.22838 62.7128C8.11594 62.7128 10.4568 60.3791 10.4568 57.5003C10.4568 54.6215 8.11594 52.2878 5.22838 52.2878C2.34082 52.2878 0 54.6215 0 57.5003C0 60.3791 2.34082 62.7128 5.22838 62.7128Z" fill="url(#paint20_linear_58_283)"/>
</mask>
<g mask="url(#mask10_58_283)">
<path d="M5.22838 62.7128C8.11594 62.7128 10.4568 60.3791 10.4568 57.5003C10.4568 54.6215 8.11594 52.2878 5.22838 52.2878C2.34082 52.2878 0 54.6215 0 57.5003C0 60.3791 2.34082 62.7128 5.22838 62.7128Z" fill="url(#paint21_linear_58_283)"/>
</g>
<mask id="mask11_58_283" style="mask-type:alpha" maskUnits="userSpaceOnUse" x="30" y="52" width="11" height="11">
<path d="M35.5094 62.7128C38.397 62.7128 40.7378 60.3791 40.7378 57.5003C40.7378 54.6215 38.397 52.2878 35.5094 52.2878C32.6219 52.2878 30.2811 54.6215 30.2811 57.5003C30.2811 60.3791 32.6219 62.7128 35.5094 62.7128Z" fill="url(#paint22_linear_58_283)"/>
</mask>
<g mask="url(#mask11_58_283)">
<path d="M35.5094 62.7128C38.397 62.7128 40.7378 60.3791 40.7378 57.5003C40.7378 54.6215 38.397 52.2878 35.5094 52.2878C32.6219 52.2878 30.2811 54.6215 30.2811 57.5003C30.2811 60.3791 32.6219 62.7128 35.5094 62.7128Z" fill="url(#paint23_linear_58_283)"/>
</g>
<mask id="mask12_58_283" style="mask-type:alpha" maskUnits="userSpaceOnUse" x="60" y="52" width="12" height="11">
<path d="M65.7905 62.7128C68.6781 62.7128 71.0189 60.3791 71.0189 57.5003C71.0189 54.6215 68.6781 52.2878 65.7905 52.2878C62.9029 52.2878 60.5621 54.6215 60.5621 57.5003C60.5621 60.3791 62.9029 62.7128 65.7905 62.7128Z" fill="url(#paint24_linear_58_283)"/>
</mask>
<g mask="url(#mask12_58_283)">
<path d="M65.7905 62.7128C68.6781 62.7128 71.0189 60.3791 71.0189 57.5003C71.0189 54.6215 68.6781 52.2878 65.7905 52.2878C62.9029 52.2878 60.5621 54.6215 60.5621 57.5003C60.5621 60.3791 62.9029 62.7128 65.7905 62.7128Z" fill="url(#paint25_linear_58_283)"/>
</g>
<mask id="mask13_58_283" style="mask-type:alpha" maskUnits="userSpaceOnUse" x="90" y="52" width="12" height="11">
<path d="M96.0716 62.7128C98.9592 62.7128 101.3 60.3791 101.3 57.5003C101.3 54.6215 98.9592 52.2878 96.0716 52.2878C93.184 52.2878 90.8432 54.6215 90.8432 57.5003C90.8432 60.3791 93.184 62.7128 96.0716 62.7128Z" fill="url(#paint26_linear_58_283)"/>
</mask>
<g mask="url(#mask13_58_283)">
<path d="M96.0716 62.7128C98.9592 62.7128 101.3 60.3791 101.3 57.5003C101.3 54.6215 98.9592 52.2878 96.0716 52.2878C93.184 52.2878 90.8432 54.6215 90.8432 57.5003C90.8432 60.3791 93.184 62.7128 96.0716 62.7128Z" fill="url(#paint27_linear_58_283)"/>
</g>
<mask id="mask14_58_283" style="mask-type:alpha" maskUnits="userSpaceOnUse" x="121" y="52" width="11" height="11">
<path d="M126.353 62.7128C129.24 62.7128 131.581 60.3791 131.581 57.5003C131.581 54.6215 129.24 52.2878 126.353 52.2878C123.465 52.2878 121.124 54.6215 121.124 57.5003C121.124 60.3791 123.465 62.7128 126.353 62.7128Z" fill="url(#paint28_linear_58_283)"/>
</mask>
<g mask="url(#mask14_58_283)">
<path d="M126.353 62.7128C129.24 62.7128 131.581 60.3791 131.581 57.5003C131.581 54.6215 129.24 52.2878 126.353 52.2878C123.465 52.2878 121.124 54.6215 121.124 57.5003C121.124 60.3791 123.465 62.7128 126.353 62.7128Z" fill="url(#paint29_linear_58_283)"/>
</g>
<mask id="mask15_58_283" style="mask-type:alpha" maskUnits="userSpaceOnUse" x="0" y="78" width="11" height="11">
<path d="M5.22838 88.8837C8.11594 88.8837 10.4568 86.5499 10.4568 83.6712C10.4568 80.7924 8.11594 78.4587 5.22838 78.4587C2.34082 78.4587 0 80.7924 0 83.6712C0 86.5499 2.34082 88.8837 5.22838 88.8837Z" fill="url(#paint30_linear_58_283)"/>
</mask>
<g mask="url(#mask15_58_283)">
<path d="M5.22838 88.8837C8.11594 88.8837 10.4568 86.5499 10.4568 83.6712C10.4568 80.7924 8.11594 78.4587 5.22838 78.4587C2.34082 78.4587 0 80.7924 0 83.6712C0 86.5499 2.34082 88.8837 5.22838 88.8837Z" fill="url(#paint31_linear_58_283)"/>
</g>
<mask id="mask16_58_283" style="mask-type:alpha" maskUnits="userSpaceOnUse" x="30" y="78" width="11" height="11">
<path d="M35.5094 88.8837C38.397 88.8837 40.7378 86.5499 40.7378 83.6712C40.7378 80.7924 38.397 78.4587 35.5094 78.4587C32.6219 78.4587 30.2811 80.7924 30.2811 83.6712C30.2811 86.5499 32.6219 88.8837 35.5094 88.8837Z" fill="url(#paint32_linear_58_283)"/>
</mask>
<g mask="url(#mask16_58_283)">
<path d="M35.5094 88.8837C38.397 88.8837 40.7378 86.5499 40.7378 83.6712C40.7378 80.7924 38.397 78.4587 35.5094 78.4587C32.6219 78.4587 30.2811 80.7924 30.2811 83.6712C30.2811 86.5499 32.6219 88.8837 35.5094 88.8837Z" fill="url(#paint33_linear_58_283)"/>
</g>
<mask id="mask17_58_283" style="mask-type:alpha" maskUnits="userSpaceOnUse" x="60" y="78" width="12" height="11">
<path d="M65.7905 88.8837C68.6781 88.8837 71.0189 86.5499 71.0189 83.6712C71.0189 80.7924 68.6781 78.4587 65.7905 78.4587C62.9029 78.4587 60.5621 80.7924 60.5621 83.6712C60.5621 86.5499 62.9029 88.8837 65.7905 88.8837Z" fill="url(#paint34_linear_58_283)"/>
</mask>
<g mask="url(#mask17_58_283)">
<path d="M65.7905 88.8837C68.6781 88.8837 71.0189 86.5499 71.0189 83.6712C71.0189 80.7924 68.6781 78.4587 65.7905 78.4587C62.9029 78.4587 60.5621 80.7924 60.5621 83.6712C60.5621 86.5499 62.9029 88.8837 65.7905 88.8837Z" fill="url(#paint35_linear_58_283)"/>
</g>
<mask id="mask18_58_283" style="mask-type:alpha" maskUnits="userSpaceOnUse" x="90" y="78" width="12" height="11">
<path d="M96.0716 88.8837C98.9592 88.8837 101.3 86.5499 101.3 83.6712C101.3 80.7924 98.9592 78.4587 96.0716 78.4587C93.184 78.4587 90.8432 80.7924 90.8432 83.6712C90.8432 86.5499 93.184 88.8837 96.0716 88.8837Z" fill="url(#paint36_linear_58_283)"/>
</mask>
<g mask="url(#mask18_58_283)">
<path d="M96.0716 88.8837C98.9592 88.8837 101.3 86.5499 101.3 83.6712C101.3 80.7924 98.9592 78.4587 96.0716 78.4587C93.184 78.4587 90.8432 80.7924 90.8432 83.6712C90.8432 86.5499 93.184 88.8837 96.0716 88.8837Z" fill="url(#paint37_linear_58_283)"/>
</g>
<mask id="mask19_58_283" style="mask-type:alpha" maskUnits="userSpaceOnUse" x="121" y="78" width="11" height="11">
<path d="M126.353 88.8837C129.24 88.8837 131.581 86.5499 131.581 83.6712C131.581 80.7924 129.24 78.4587 126.353 78.4587C123.465 78.4587 121.124 80.7924 121.124 83.6712C121.124 86.5499 123.465 88.8837 126.353 88.8837Z" fill="url(#paint38_linear_58_283)"/>
</mask>
<g mask="url(#mask19_58_283)">
<path d="M126.353 88.8837C129.24 88.8837 131.581 86.5499 131.581 83.6712C131.581 80.7924 129.24 78.4587 126.353 78.4587C123.465 78.4587 121.124 80.7924 121.124 83.6712C121.124 86.5499 123.465 88.8837 126.353 88.8837Z" fill="url(#paint39_linear_58_283)"/>
</g>
<mask id="mask20_58_283" style="mask-type:alpha" maskUnits="userSpaceOnUse" x="0" y="104" width="11" height="12">
<path d="M5.22838 115C8.11594 115 10.4568 112.666 10.4568 109.788C10.4568 106.909 8.11594 104.575 5.22838 104.575C2.34082 104.575 0 106.909 0 109.788C0 112.666 2.34082 115 5.22838 115Z" fill="url(#paint40_linear_58_283)"/>
</mask>
<g mask="url(#mask20_58_283)">
<path d="M5.22838 115C8.11594 115 10.4568 112.666 10.4568 109.788C10.4568 106.909 8.11594 104.575 5.22838 104.575C2.34082 104.575 0 106.909 0 109.788C0 112.666 2.34082 115 5.22838 115Z" fill="url(#paint41_linear_58_283)"/>
</g>
<mask id="mask21_58_283" style="mask-type:alpha" maskUnits="userSpaceOnUse" x="30" y="104" width="11" height="12">
<path d="M35.5094 115C38.397 115 40.7378 112.666 40.7378 109.788C40.7378 106.909 38.397 104.575 35.5094 104.575C32.6219 104.575 30.2811 106.909 30.2811 109.788C30.2811 112.666 32.6219 115 35.5094 115Z" fill="url(#paint42_linear_58_283)"/>
</mask>
<g mask="url(#mask21_58_283)">
<path d="M35.5094 115C38.397 115 40.7378 112.666 40.7378 109.788C40.7378 106.909 38.397 104.575 35.5094 104.575C32.6219 104.575 30.2811 106.909 30.2811 109.788C30.2811 112.666 32.6219 115 35.5094 115Z" fill="url(#paint43_linear_58_283)"/>
</g>
<mask id="mask22_58_283" style="mask-type:alpha" maskUnits="userSpaceOnUse" x="60" y="104" width="12" height="12">
<path d="M65.7905 115C68.6781 115 71.0189 112.666 71.0189 109.788C71.0189 106.909 68.6781 104.575 65.7905 104.575C62.9029 104.575 60.5621 106.909 60.5621 109.788C60.5621 112.666 62.9029 115 65.7905 115Z" fill="url(#paint44_linear_58_283)"/>
</mask>
<g mask="url(#mask22_58_283)">
<path d="M65.7905 115C68.6781 115 71.0189 112.666 71.0189 109.788C71.0189 106.909 68.6781 104.575 65.7905 104.575C62.9029 104.575 60.5621 106.909 60.5621 109.788C60.5621 112.666 62.9029 115 65.7905 115Z" fill="url(#paint45_linear_58_283)"/>
</g>
<mask id="mask23_58_283" style="mask-type:alpha" maskUnits="userSpaceOnUse" x="90" y="104" width="12" height="12">
<path d="M96.0716 115C98.9592 115 101.3 112.666 101.3 109.788C101.3 106.909 98.9592 104.575 96.0716 104.575C93.184 104.575 90.8432 106.909 90.8432 109.788C90.8432 112.666 93.184 115 96.0716 115Z" fill="url(#paint46_linear_58_283)"/>
</mask>
<g mask="url(#mask23_58_283)">
<path d="M96.0716 115C98.9592 115 101.3 112.666 101.3 109.788C101.3 106.909 98.9592 104.575 96.0716 104.575C93.184 104.575 90.8432 106.909 90.8432 109.788C90.8432 112.666 93.184 115 96.0716 115Z" fill="url(#paint47_linear_58_283)"/>
</g>
<mask id="mask24_58_283" style="mask-type:alpha" maskUnits="userSpaceOnUse" x="121" y="104" width="11" height="12">
<path d="M126.353 115C129.24 115 131.581 112.666 131.581 109.788C131.581 106.909 129.24 104.575 126.353 104.575C123.465 104.575 121.124 106.909 121.124 109.788C121.124 112.666 123.465 115 126.353 115Z" fill="url(#paint48_linear_58_283)"/>
</mask>
<g mask="url(#mask24_58_283)">
<path d="M126.353 115C129.24 115 131.581 112.666 131.581 109.788C131.581 106.909 129.24 104.575 126.353 104.575C123.465 104.575 121.124 106.909 121.124 109.788C121.124 112.666 123.465 115 126.353 115Z" fill="url(#paint49_linear_58_283)"/>
</g>
</g>
<defs>
<linearGradient id="paint0_linear_58_283" x1="54.996" y1="131.134" x2="-16.4057" y2="-50.6697" gradientUnits="userSpaceOnUse">
<stop/>
<stop offset="1" stop-color="white"/>
</linearGradient>
<linearGradient id="paint1_linear_58_283" x1="54.996" y1="131.134" x2="-16.4057" y2="-50.6697" gradientUnits="userSpaceOnUse">
<stop stop-color="#97C3F9"/>
<stop offset="1" stop-color="#93C1F9"/>
</linearGradient>
<linearGradient id="paint2_linear_58_283" x1="81.2005" y1="120.843" x2="9.79887" y2="-60.961" gradientUnits="userSpaceOnUse">
<stop/>
<stop offset="1" stop-color="white"/>
</linearGradient>
<linearGradient id="paint3_linear_58_283" x1="81.2005" y1="120.843" x2="9.79887" y2="-60.961" gradientUnits="userSpaceOnUse">
<stop stop-color="#97C3F9"/>
<stop offset="1" stop-color="#93C1F9"/>
</linearGradient>
<linearGradient id="paint4_linear_58_283" x1="107.405" y1="110.551" x2="36.0033" y2="-71.2523" gradientUnits="userSpaceOnUse">
<stop/>
<stop offset="1" stop-color="white"/>
</linearGradient>
<linearGradient id="paint5_linear_58_283" x1="107.405" y1="110.551" x2="36.0033" y2="-71.2523" gradientUnits="userSpaceOnUse">
<stop stop-color="#97C3F9"/>
<stop offset="1" stop-color="#93C1F9"/>
</linearGradient>
<linearGradient id="paint6_linear_58_283" x1="133.609" y1="100.26" x2="62.2075" y2="-81.5442" gradientUnits="userSpaceOnUse">
<stop/>
<stop offset="1" stop-color="white"/>
</linearGradient>
<linearGradient id="paint7_linear_58_283" x1="133.609" y1="100.26" x2="62.2075" y2="-81.5442" gradientUnits="userSpaceOnUse">
<stop stop-color="#97C3F9"/>
<stop offset="1" stop-color="#93C1F9"/>
</linearGradient>
<linearGradient id="paint8_linear_58_283" x1="159.813" y1="89.9682" x2="88.4118" y2="-91.8357" gradientUnits="userSpaceOnUse">
<stop/>
<stop offset="1" stop-color="white"/>
</linearGradient>
<linearGradient id="paint9_linear_58_283" x1="159.813" y1="89.9682" x2="88.4118" y2="-91.8357" gradientUnits="userSpaceOnUse">
<stop stop-color="#97C3F9"/>
<stop offset="1" stop-color="#93C1F9"/>
</linearGradient>
<linearGradient id="paint10_linear_58_283" x1="46.0538" y1="134.646" x2="-25.3466" y2="-47.1569" gradientUnits="userSpaceOnUse">
<stop/>
<stop offset="1" stop-color="white"/>
</linearGradient>
<linearGradient id="paint11_linear_58_283" x1="46.0538" y1="134.646" x2="-25.3466" y2="-47.1569" gradientUnits="userSpaceOnUse">
<stop stop-color="#97C3F9"/>
<stop offset="1" stop-color="#93C1F9"/>
</linearGradient>
<linearGradient id="paint12_linear_58_283" x1="72.2581" y1="124.354" x2="0.857702" y2="-57.4488" gradientUnits="userSpaceOnUse">
<stop/>
<stop offset="1" stop-color="white"/>
</linearGradient>
<linearGradient id="paint13_linear_58_283" x1="72.2581" y1="124.354" x2="0.857702" y2="-57.4488" gradientUnits="userSpaceOnUse">
<stop stop-color="#97C3F9"/>
<stop offset="1" stop-color="#93C1F9"/>
</linearGradient>
<linearGradient id="paint14_linear_58_283" x1="98.4624" y1="114.062" x2="27.062" y2="-67.7401" gradientUnits="userSpaceOnUse">
<stop/>
<stop offset="1" stop-color="white"/>
</linearGradient>
<linearGradient id="paint15_linear_58_283" x1="98.4624" y1="114.062" x2="27.062" y2="-67.7401" gradientUnits="userSpaceOnUse">
<stop stop-color="#97C3F9"/>
<stop offset="1" stop-color="#93C1F9"/>
</linearGradient>
<linearGradient id="paint16_linear_58_283" x1="124.667" y1="103.771" x2="53.2663" y2="-78.0316" gradientUnits="userSpaceOnUse">
<stop/>
<stop offset="1" stop-color="white"/>
</linearGradient>
<linearGradient id="paint17_linear_58_283" x1="124.667" y1="103.771" x2="53.2663" y2="-78.0316" gradientUnits="userSpaceOnUse">
<stop stop-color="#97C3F9"/>
<stop offset="1" stop-color="#93C1F9"/>
</linearGradient>
<linearGradient id="paint18_linear_58_283" x1="150.871" y1="93.4795" x2="79.4707" y2="-88.3229" gradientUnits="userSpaceOnUse">
<stop/>
<stop offset="1" stop-color="white"/>
</linearGradient>
<linearGradient id="paint19_linear_58_283" x1="150.871" y1="93.4795" x2="79.4707" y2="-88.3229" gradientUnits="userSpaceOnUse">
<stop stop-color="#97C3F9"/>
<stop offset="1" stop-color="#93C1F9"/>
</linearGradient>
<linearGradient id="paint20_linear_58_283" x1="37.1113" y1="138.158" x2="-34.2903" y2="-43.6455" gradientUnits="userSpaceOnUse">
<stop/>
<stop offset="1" stop-color="white"/>
</linearGradient>
<linearGradient id="paint21_linear_58_283" x1="37.1113" y1="138.158" x2="-34.2903" y2="-43.6455" gradientUnits="userSpaceOnUse">
<stop stop-color="#97C3F9"/>
<stop offset="1" stop-color="#93C1F9"/>
</linearGradient>
<linearGradient id="paint22_linear_58_283" x1="63.3157" y1="127.867" x2="-8.08592" y2="-53.9371" gradientUnits="userSpaceOnUse">
<stop/>
<stop offset="1" stop-color="white"/>
</linearGradient>
<linearGradient id="paint23_linear_58_283" x1="63.3157" y1="127.867" x2="-8.08592" y2="-53.9371" gradientUnits="userSpaceOnUse">
<stop stop-color="#97C3F9"/>
<stop offset="1" stop-color="#93C1F9"/>
</linearGradient>
<linearGradient id="paint24_linear_58_283" x1="89.52" y1="117.575" x2="18.1185" y2="-64.2285" gradientUnits="userSpaceOnUse">
<stop/>
<stop offset="1" stop-color="white"/>
</linearGradient>
<linearGradient id="paint25_linear_58_283" x1="89.52" y1="117.575" x2="18.1185" y2="-64.2285" gradientUnits="userSpaceOnUse">
<stop stop-color="#97C3F9"/>
<stop offset="1" stop-color="#93C1F9"/>
</linearGradient>
<linearGradient id="paint26_linear_58_283" x1="115.724" y1="107.284" x2="44.3227" y2="-74.5201" gradientUnits="userSpaceOnUse">
<stop/>
<stop offset="1" stop-color="white"/>
</linearGradient>
<linearGradient id="paint27_linear_58_283" x1="115.724" y1="107.284" x2="44.3227" y2="-74.5201" gradientUnits="userSpaceOnUse">
<stop stop-color="#97C3F9"/>
<stop offset="1" stop-color="#93C1F9"/>
</linearGradient>
<linearGradient id="paint28_linear_58_283" x1="141.929" y1="96.9922" x2="70.5271" y2="-84.8116" gradientUnits="userSpaceOnUse">
<stop/>
<stop offset="1" stop-color="white"/>
</linearGradient>
<linearGradient id="paint29_linear_58_283" x1="141.929" y1="96.9922" x2="70.5271" y2="-84.8116" gradientUnits="userSpaceOnUse">
<stop stop-color="#97C3F9"/>
<stop offset="1" stop-color="#93C1F9"/>
</linearGradient>
<linearGradient id="paint30_linear_58_283" x1="28.169" y1="141.67" x2="-43.2327" y2="-40.1335" gradientUnits="userSpaceOnUse">
<stop/>
<stop offset="1" stop-color="white"/>
</linearGradient>
<linearGradient id="paint31_linear_58_283" x1="28.169" y1="141.67" x2="-43.2327" y2="-40.1335" gradientUnits="userSpaceOnUse">
<stop stop-color="#97C3F9"/>
<stop offset="1" stop-color="#93C1F9"/>
</linearGradient>
<linearGradient id="paint32_linear_58_283" x1="54.3734" y1="131.379" x2="-17.0283" y2="-50.425" gradientUnits="userSpaceOnUse">
<stop/>
<stop offset="1" stop-color="white"/>
</linearGradient>
<linearGradient id="paint33_linear_58_283" x1="54.3734" y1="131.379" x2="-17.0283" y2="-50.425" gradientUnits="userSpaceOnUse">
<stop stop-color="#97C3F9"/>
<stop offset="1" stop-color="#93C1F9"/>
</linearGradient>
<linearGradient id="paint34_linear_58_283" x1="80.5776" y1="121.087" x2="9.17607" y2="-60.7165" gradientUnits="userSpaceOnUse">
<stop/>
<stop offset="1" stop-color="white"/>
</linearGradient>
<linearGradient id="paint35_linear_58_283" x1="80.5776" y1="121.087" x2="9.17607" y2="-60.7165" gradientUnits="userSpaceOnUse">
<stop stop-color="#97C3F9"/>
<stop offset="1" stop-color="#93C1F9"/>
</linearGradient>
<linearGradient id="paint36_linear_58_283" x1="106.782" y1="110.796" x2="35.3804" y2="-71.0081" gradientUnits="userSpaceOnUse">
<stop/>
<stop offset="1" stop-color="white"/>
</linearGradient>
<linearGradient id="paint37_linear_58_283" x1="106.782" y1="110.796" x2="35.3804" y2="-71.0081" gradientUnits="userSpaceOnUse">
<stop stop-color="#97C3F9"/>
<stop offset="1" stop-color="#93C1F9"/>
</linearGradient>
<linearGradient id="paint38_linear_58_283" x1="132.986" y1="100.504" x2="61.5847" y2="-81.2996" gradientUnits="userSpaceOnUse">
<stop/>
<stop offset="1" stop-color="white"/>
</linearGradient>
<linearGradient id="paint39_linear_58_283" x1="132.986" y1="100.504" x2="61.5847" y2="-81.2996" gradientUnits="userSpaceOnUse">
<stop stop-color="#97C3F9"/>
<stop offset="1" stop-color="#93C1F9"/>
</linearGradient>
<linearGradient id="paint40_linear_58_283" x1="19.2266" y1="145.182" x2="-52.1751" y2="-36.6217" gradientUnits="userSpaceOnUse">
<stop/>
<stop offset="1" stop-color="white"/>
</linearGradient>
<linearGradient id="paint41_linear_58_283" x1="19.2266" y1="145.182" x2="-52.1751" y2="-36.6217" gradientUnits="userSpaceOnUse">
<stop stop-color="#97C3F9"/>
<stop offset="1" stop-color="#93C1F9"/>
</linearGradient>
<linearGradient id="paint42_linear_58_283" x1="45.431" y1="134.891" x2="-25.9707" y2="-46.9132" gradientUnits="userSpaceOnUse">
<stop/>
<stop offset="1" stop-color="white"/>
</linearGradient>
<linearGradient id="paint43_linear_58_283" x1="45.431" y1="134.891" x2="-25.9707" y2="-46.9132" gradientUnits="userSpaceOnUse">
<stop stop-color="#97C3F9"/>
<stop offset="1" stop-color="#93C1F9"/>
</linearGradient>
<linearGradient id="paint44_linear_58_283" x1="71.6353" y1="124.599" x2="0.233722" y2="-57.2045" gradientUnits="userSpaceOnUse">
<stop/>
<stop offset="1" stop-color="white"/>
</linearGradient>
<linearGradient id="paint45_linear_58_283" x1="71.6353" y1="124.599" x2="0.233722" y2="-57.2045" gradientUnits="userSpaceOnUse">
<stop stop-color="#97C3F9"/>
<stop offset="1" stop-color="#93C1F9"/>
</linearGradient>
<linearGradient id="paint46_linear_58_283" x1="97.8397" y1="114.308" x2="26.438" y2="-67.4962" gradientUnits="userSpaceOnUse">
<stop/>
<stop offset="1" stop-color="white"/>
</linearGradient>
<linearGradient id="paint47_linear_58_283" x1="97.8397" y1="114.308" x2="26.438" y2="-67.4962" gradientUnits="userSpaceOnUse">
<stop stop-color="#97C3F9"/>
<stop offset="1" stop-color="#93C1F9"/>
</linearGradient>
<linearGradient id="paint48_linear_58_283" x1="124.044" y1="104.016" x2="52.6424" y2="-77.7877" gradientUnits="userSpaceOnUse">
<stop/>
<stop offset="1" stop-color="white"/>
</linearGradient>
<linearGradient id="paint49_linear_58_283" x1="124.044" y1="104.016" x2="52.6424" y2="-77.7877" gradientUnits="userSpaceOnUse">
<stop stop-color="#97C3F9"/>
<stop offset="1" stop-color="#93C1F9"/>
</linearGradient>
</defs>
</svg>
